<svg xmlns="http://www.w3.org/2000/svg" width="300" height="300" viewBox="0 0 300 300">
<path d="M 147.0 75.5 L 149.5 84.5 L 154.5 89.0 L 159.5 93.5 " stroke="black" fill="none" stroke-width="10.0" stroke-linecap="round" stroke-linejoin="round" />
<path d="M 71.0 88.0 L 67.0 97.5 L 67.0 104.5 L 67.0 111.0 L 67.5 115.5 L 68.5 117.5 " stroke="black" fill="none" stroke-width="10.0" stroke-linecap="round" stroke-linejoin="round" />
<path d="M 81.0 92.5 L 89.0 90.0 L 103.5 91.0 L 125.5 93.5 L 149.5 95.0 L 171.5 95.0 L 194.5 93.0 L 216.0 90.5 L 232.0 90.0 L 240.0 90.0 L 241.5 91.5 L 240.5 94.0 L 231.0 101.0 L 221.0 108.0 L 217.0 111.5 " stroke="black" fill="none" stroke-width="10.0" stroke-linecap="round" stroke-linejoin="round" />
<path d="M 104.0 128.5 L 116.0 128.5 L 133.5 131.0 L 152.5 133.0 L 171.5 133.0 L 187.5 133.0 L 195.0 132.5 " stroke="black" fill="none" stroke-width="10.0" stroke-linecap="round" stroke-linejoin="round" />
<path d="M 71.5 173.0 L 73.0 172.5 L 85.0 172.5 L 106.5 172.5 L 130.5 173.0 L 154.5 174.0 L 178.0 174.0 L 200.0 174.0 L 220.0 174.0 L 235.0 174.0 " stroke="black" fill="none" stroke-width="10.0" stroke-linecap="round" stroke-linejoin="round" />
<path d="M 157.0 134.0 L 156.5 138.5 L 157.0 153.0 L 161.0 173.0 L 162.5 193.0 L 163.0 210.5 L 163.0 226.0 L 161.5 240.5 L 157.0 249.5 L 152.0 252.5 L 144.5 252.5 L 135.0 245.5 L 128.0 237.5 L 125.0 233.0 " stroke="black" fill="none" stroke-width="10.0" stroke-linecap="round" stroke-linejoin="round" />
</svg>