<svg xmlns="http://www.w3.org/2000/svg" width="300" height="300" viewBox="0 0 300 300">
<path d="M 143.0 56.5 L 144.5 58.5 L 145.5 65.5 L 147.5 76.5 L 149.0 88.0 L 149.5 95.5 L 151.0 99.5 " stroke="black" fill="none" stroke-width="10.0" stroke-linecap="round" stroke-linejoin="round" />
<path d="M 69.0 96.5 L 80.0 95.5 L 102.5 95.5 L 128.0 95.5 L 152.0 95.5 L 173.0 95.5 L 192.0 95.5 L 209.0 95.5 L 224.5 95.5 L 232.0 95.5 " stroke="black" fill="none" stroke-width="10.0" stroke-linecap="round" stroke-linejoin="round" />
<path d="M 149.5 101.0 L 144.5 105.0 L 135.5 114.5 L 124.5 128.5 L 110.0 144.5 L 96.5 156.5 L 86.5 166.0 L 82.0 171.5 L 81.5 172.5 L 82.0 172.5 L 88.5 172.5 L 98.5 172.0 L 109.0 170.0 L 120.5 168.0 L 131.5 167.0 L 142.5 166.0 L 152.0 166.0 L 162.0 166.0 " stroke="black" fill="none" stroke-width="10.0" stroke-linecap="round" stroke-linejoin="round" />
<path d="M 194.0 134.5 L 192.0 140.5 L 183.0 153.0 L 167.0 169.5 L 146.5 187.0 L 127.5 200.5 L 113.0 209.5 L 101.0 218.0 L 91.5 223.5 L 86.5 225.0 L 85.5 225.0 L 86.0 225.0 L 91.5 225.0 L 99.0 225.0 L 108.5 225.0 L 121.5 225.5 L 138.0 228.5 L 157.0 233.0 L 176.5 237.0 L 196.0 239.5 L 211.5 239.5 " stroke="black" fill="none" stroke-width="10.0" stroke-linecap="round" stroke-linejoin="round" />
<path d="M 200.5 190.5 L 205.0 197.5 L 214.0 212.0 L 225.5 230.5 L 238.5 250.0 " stroke="black" fill="none" stroke-width="10.0" stroke-linecap="round" stroke-linejoin="round" />
</svg>