<svg xmlns="http://www.w3.org/2000/svg" width="300" height="300" viewBox="0 0 300 300">
<path d="M 77.5 82.0 L 86.0 81.5 L 103.0 82.0 L 125.0 82.0 L 144.0 80.5 L 161.0 78.0 L 176.5 77.0 L 192.0 77.0 L 208.0 78.0 " stroke="black" fill="none" stroke-width="10.0" stroke-linecap="round" stroke-linejoin="round" />
<path d="M 120.5 60.0 L 118.0 68.5 L 117.5 75.5 L 114.0 85.0 L 110.5 94.5 L 108.0 102.0 L 106.5 107.0 L 106.5 110.0 L 106.5 111.0 L 110.5 111.5 L 118.0 111.5 L 128.5 111.5 L 141.5 110.0 L 154.0 108.5 L 164.5 108.0 L 173.0 108.0 L 180.5 107.5 L 184.0 107.0 " stroke="black" fill="none" stroke-width="10.0" stroke-linecap="round" stroke-linejoin="round" />
<path d="M 191.0 65.5 L 190.5 73.0 L 190.5 85.0 L 190.5 98.0 L 190.5 107.5 L 190.5 111.0 " stroke="black" fill="none" stroke-width="10.0" stroke-linecap="round" stroke-linejoin="round" />
<path d="M 74.0 127.0 L 77.0 131.5 L 86.5 131.5 L 103.5 131.5 L 126.0 131.5 L 150.5 131.5 L 173.0 131.5 L 195.5 131.5 L 218.5 131.5 L 238.0 131.5 L 255.5 131.0 " stroke="black" fill="none" stroke-width="10.0" stroke-linecap="round" stroke-linejoin="round" />
<path d="M 96.5 159.0 L 97.0 160.5 L 97.5 170.5 L 98.5 185.5 L 98.5 201.5 L 98.5 213.5 L 98.5 221.5 L 98.5 223.0 " stroke="black" fill="none" stroke-width="10.0" stroke-linecap="round" stroke-linejoin="round" />
<path d="M 90.5 158.0 L 91.5 159.0 L 102.5 159.0 L 121.5 159.0 L 143.0 159.0 L 163.5 159.0 L 181.5 158.0 L 196.5 156.5 L 210.0 155.5 L 219.0 155.5 L 222.0 157.5 L 222.0 164.5 L 213.5 176.5 L 203.0 189.0 L 193.5 201.0 L 185.5 211.5 " stroke="black" fill="none" stroke-width="10.0" stroke-linecap="round" stroke-linejoin="round" />
<path d="M 98.0 176.5 L 111.5 179.5 L 125.0 179.5 L 141.0 179.5 L 157.5 179.5 L 173.5 178.0 L 186.0 177.0 L 190.5 176.0 " stroke="black" fill="none" stroke-width="10.0" stroke-linecap="round" stroke-linejoin="round" />
<path d="M 156.0 158.0 L 154.5 167.5 L 154.5 177.5 L 152.5 188.5 L 150.5 198.5 L 149.5 206.5 L 149.5 209.0 " stroke="black" fill="none" stroke-width="10.0" stroke-linecap="round" stroke-linejoin="round" />
<path d="M 94.5 203.0 L 103.0 203.0 L 120.5 203.0 L 142.5 204.0 L 164.0 204.0 L 185.0 204.0 L 203.0 204.0 " stroke="black" fill="none" stroke-width="10.0" stroke-linecap="round" stroke-linejoin="round" />
<path d="M 131.0 221.0 L 120.0 223.5 L 109.0 230.0 L 96.5 238.0 L 85.5 245.0 L 79.5 247.5 " stroke="black" fill="none" stroke-width="10.0" stroke-linecap="round" stroke-linejoin="round" />
<path d="M 186.0 226.0 L 196.5 233.5 L 206.0 240.5 L 216.5 247.0 L 226.5 251.5 L 232.0 252.5 " stroke="black" fill="none" stroke-width="10.0" stroke-linecap="round" stroke-linejoin="round" />
</svg>